<?xml version="1.0" encoding="utf-8"?>
<!-- Generator: Adobe Illustrator 22.0.1, SVG Export Plug-In . SVG Version: 6.00 Build 0)  -->
<svg version="1.1" id="圖層_1" xmlns="http://www.w3.org/2000/svg" xmlns:xlink="http://www.w3.org/1999/xlink" x="0px" y="0px"
	 viewBox="0 0 135.1 177.2" style="enable-background:new 0 0 135.1 177.2;" xml:space="preserve">
<style type="text/css">
	.st0{fill-rule:evenodd;clip-rule:evenodd;fill:#1772FF;}
</style>
<g>
	<g>
		<path class="st0" d="M115.9,90c-0.7-2.6-1.4-5.3-2.2-7.9c-0.9-1.9-11.2-15.7-13-16.9c-7.5-5.1-20.5-6.5-30.6-8.6
			c-2.5-0.1-5-0.2-7.6-0.4c-0.7-0.5-1.4-1-2.2-1.4c0.4-1.9,0.7-3.8,1.1-5.8c0.4,0.2,0.7,0.5,1.1,0.7c0.1-10.8,3.9-23.3,0-31
			c0.6-0.6,1.2-1.2,1.8-1.8c-2.9-1.6-7.4-8.7-9-11.5C54.2,3.6,45.4,0.3,42.1,0c-1.3,0.4-2.6,0.7-4,1.1c-0.7,1.1-1.4,2.2-2.2,3.2
			h-6.5c-4.8,1.4-12,6.7-13.3,11.5c0.2,1.7,0.5,3.4,0.7,5c-1.2,4.3-1.1,6.8-2.5,10.8c5.1,4.6,7.2,10.7,11.9,15.8
			c2.9,3.2,7.8,6.1,11.2,8.6v2.5c-7.1,4.9-20.6,7-25.6,14c-1.8,3.5-3.6,7-5.4,10.4c-1.9,3.1-4.5,5.3-5.4,9.7
			c0.4,5.8,0.7,11.5,1.1,17.3c0.4,4.8-3.4,8.8-1.8,14.8c1.6,6.2,12.9,16,22.3,13c4.8,7.4,4.7,16.6,7.6,25.2c1.3,3.9,4.2,5.5,6.1,8.3
			c0.2,1.7,0.5,3.4,0.7,5v0.7h34.2v-1.4c-2.7-1.8-5.5-2.9-8.6-4c-1.3-1.8-1.9-3.2-1.8-6.5c8.2-8.2,13.3-5.1,24.8-3.6
			c2.6,0.2,5.3,0.5,7.9,0.7c4-2.6,7.9-5.3,11.9-7.9c1.8-0.1,3.6-0.2,5.4-0.4c2-0.6,2.2-2.5,3.6-3.6c2.5-1.3,5-2.6,7.6-4
			c6.1-4.9,9.8-15.4,13-23C128.5,112.5,122.7,100.7,115.9,90z M110.9,135c-0.6-0.1-1.2-0.2-1.8-0.4c0.1-0.5,0.2-1,0.4-1.4
			c0.5,0.2,1,0.5,1.4,0.7V135z"/>.
			
	</g>
</g>
</svg>
