<?xml version="1.0" encoding="utf-8"?>
<!-- Generator: Adobe Illustrator 22.0.1, SVG Export Plug-In . SVG Version: 6.00 Build 0)  -->
<svg version="1.1" id="圖層_1" xmlns="http://www.w3.org/2000/svg" xmlns:xlink="http://www.w3.org/1999/xlink" x="0px" y="0px"
	 viewBox="0 0 117.6 284.7" style="enable-background:new 0 0 117.6 284.7;" xml:space="preserve">
<style type="text/css">
	.st0{fill-rule:evenodd;clip-rule:evenodd;fill:#F1FF73;}
</style>
<path class="st0" d="M42.6,0c12.8,0.1,20.6,2,23,15.5c1,5.4-3.3,10.3-1.1,16.2c0.9-0.7,0.9-1,2.2-1.4c2.2,0.9,5.6,5.1,7.2,5
	c3.2-2.7,8.2-7.6,14.8-4.7c1.8,3.6,3.6,7.2,5.4,10.8c0.8,2.9-0.8,6.3-0.4,8.6c1.3,6.1,4.2,13.5,6.1,20.5c1.6,2.8,3.1,5.5,4.7,8.3
	c-0.1,1.3-0.2,2.6-0.4,4c1.1,2,2.2,4.1,3.2,6.1c2.7,7.1,3.4,12.6,5,20.5c1.3,6.3,6.6,28.3,4.7,33.5c-5.4,11.2-23.4,8.5-35.6,12.2
	c-4,2.4-9.5,18.6-6.5,23.8c0.6,0,1.2,0,1.8,0c0-2-0.1-1.4,0.7-2.9c5.6-0.8,11.4-2.6,16.6-1.4c6,7.9,0.7,16.6-5.4,20.9
	c0.5,12.5-9.5,21.7-18.7,13.7c0.2,20.3-5.7,38.7-10.1,56.2c-1.7,6.9-5,11.4-4.3,19.4c-7.7,0-15.4,0-23,0c0-0.1,0-0.2,0-0.4
	c1.5-3,2.2-5.1,5-6.8c-5.2-8.2,1.1-13.5,3.2-18c0.4-2.9,0.7-5.8,1.1-8.6c-0.8-4.7-1.7-9.4-2.5-14c-2-11.6-1.5-28,0.4-38.2
	c-11.3,0.3-34.9,2.8-38.9-5C-4.4,183.4,17,160.8,21,154.1c0-0.1,0-0.2,0-0.4c-1.8,0.1-3.6,0.2-5.4,0.4c0-0.1,0-0.2,0-0.4
	c4.6-11.5,10.2-20.4,15.8-30.6c-0.8-4.1-6.3-12.6-3.6-16.9c1.4-0.7,2.9-1.4,4.3-2.2c1.9-1.9,0.8-3.5,4.3-3.2
	c-0.9-6.7-2.1-13.5,0-20.5c0.7-2.4,3-4.9,3.6-7.9c1.2-6-2.4-10.9,0-15.8c2.1-4.4,7.3-5.9,10.1-9.7c-3-6.9-6.1-3.5-9.4-7.2
	c-3.4-3.9-3.6-7.8-6.1-13c-1.3-1.6-2.6-3.1-4-4.7C25.6,9.9,36.4,3.8,42.6,0z"/>
</svg>
