<?xml version="1.0" encoding="utf-8"?>
<!-- Generator: Adobe Illustrator 22.0.1, SVG Export Plug-In . SVG Version: 6.00 Build 0)  -->
<svg version="1.1" id="圖層_1" xmlns="http://www.w3.org/2000/svg" xmlns:xlink="http://www.w3.org/1999/xlink" x="0px" y="0px"
	 viewBox="0 0 129.9 193" style="enable-background:new 0 0 129.9 193;" xml:space="preserve">
<style type="text/css">
	.st0{fill-rule:evenodd;clip-rule:evenodd;fill:#0096E7;}
</style>
<g>
	<g>
		<path class="st0" d="M98.5,136.8c-3.8-2.5-7.7-5-11.5-7.6c-0.4-2-0.7-4.1-1.1-6.1c-1.8-0.8-3.6-1.7-5.4-2.5
			c-0.1-2.5,1.7-4.1,1.8-7.9c-0.1-0.2-0.2-0.5-0.4-0.7c-2.5-0.6-5-1.2-7.6-1.8c0.1-1.1,0.2-2.2,0.4-3.2c1.2-2.2,3.8-3.3,6.5-4
			c0.2-1.8,0.5-3.6,0.7-5.4c3.5,2,5.7,4.6,11.2,4.7c6.4-6.2,10.1-18.7,6.1-31c-1.4-4.3-4.1-6-4.3-12.6c-2.6-2.1-6.4-6-10.4-4.3
			c-2-3.3-5.2-8.3-9.7-9c0.9-3.2,6.1-7.1,9.4-9.4c-0.8,1.9-1.7,3.8-2.5,5.8c-0.5,0.5-1,1-1.4,1.4v0.4c0.7-0.1,1.4-0.2,2.2-0.4
			c5-2.2,9.1-11.1,9-18.4c0.1,0.4,0.2,0.7,0.4,1.1H92C92.1,9,82.1,1.6,67.2,0C60.9,4,54.4,4.1,51,10.8c-3.8,7.3,0.1,15.8-5.8,23
			c-6.6,8.2-22.3,9.8-31,15.8C10.3,52.4,8,62.3,6.7,67.3C4,77.6-7.1,104.1,7,111.2c5.3-0.1,7.7-2.3,11.2-4.3
			c0.2,0.3,2.2,19.5,2.9,22c-1.6,1.7-3.1,3.4-4.7,5c-0.6,3.6,0.8,7.6,1.8,10.8c7-3.5,13.9-7,20.9-10.4c3.7,0.2,7.4,0.5,11.2,0.7
			c6,0.4,12,0.7,18,1.1c9.3,1.9,19.8,2.9,30.2,3.2C98.6,138.3,97.6,137.3,98.5,136.8z M124,159.8c0.4,6.8,0.7,13.7,1.1,20.5h0.4
			c1.2-3.9,3.5-6.1,4.3-9.7C130.7,167.7,126.6,160.9,124,159.8z M117.6,162.4c-0.8,3.2-2,8.3,0.4,10.4c-0.5,0.8-1,1.7-1.4,2.5
			c-0.1,0.9-1.1-1.2-2.2-1.8c-5.5,4.7-10.2,11.8-16.6,15.5c-0.1,1.3-0.2,2.6-0.4,4h23c-0.6-9.9-1.9-19.2-1.8-30.6H117.6z"/>
	</g>
</g>
</svg>
