<?xml version="1.0" encoding="utf-8"?>
<!-- Generator: Adobe Illustrator 22.0.1, SVG Export Plug-In . SVG Version: 6.00 Build 0)  -->
<svg version="1.1" id="圖層_1" xmlns="http://www.w3.org/2000/svg" xmlns:xlink="http://www.w3.org/1999/xlink" x="0px" y="0px"
	 viewBox="0 0 92.3 102.3" style="enable-background:new 0 0 92.3 102.3;" xml:space="preserve">
<style type="text/css">
	.st0{fill-rule:evenodd;clip-rule:evenodd;fill:#0049B9;}
</style>
<g>
	<g>
		<path class="st0" d="M85.8,93.2c-5-18.9,3.7-38.3-13-46.1c-3.1-7.5,8.8-11,11.2-15.8C92,14.8,78.7-0.2,64.6,0
			c-5.8,3.6-20.1,8.7-17.3,20.2c1.4,5.7,4.7,10.4,4.3,18c-3.8,0-7.7,0-11.5,0c-2.4,2.4-2.3,2.6-4.7,5c7.9,3.7,9.2,21,7.2,34.2
			c-0.5,3-1.5,8-0.4,11.2c2,5.6,10,4.6,16.2,6.1c13.1,3.2,25.5,13.4,33.8-1.4C90.2,93.2,88,93.2,85.8,93.2z M7.4,86.8
			c-2.2,5.7-4.8,6.3-7.2,10.8c-0.3,2.7-0.1,4.7,0.4,4.7c1.2-2.7,15.1-6.6,13.7-7.9C14.9,91.7,8.7,88.4,7.4,86.8z"/>
	</g>
</g>
</svg>
