<?xml version="1.0" encoding="utf-8"?>
<!-- Generator: Adobe Illustrator 22.0.1, SVG Export Plug-In . SVG Version: 6.00 Build 0)  -->
<svg version="1.1" id="圖層_1" xmlns="http://www.w3.org/2000/svg" xmlns:xlink="http://www.w3.org/1999/xlink" x="0px" y="0px"
	 viewBox="0 0 90.1 219.5" style="enable-background:new 0 0 90.1 219.5;" xml:space="preserve">
<style type="text/css">
	.st0{fill-rule:evenodd;clip-rule:evenodd;fill:#5C93FF;}
</style>
<g>
	<g>
		<path class="st0" d="M53.8,170.3c0.4,2.5-0.4,4.9,0.7,6.5c1.4,2.5,8.8,4.9,11.9,5.4c1.3-6,4-24.7,1.4-31
			C60.1,158.4,50.5,152,53.8,170.3z M89,83.2c0-6.7,0.2-13.5-2.5-17.6C80.2,56,62.7,56,59.9,43.2c2-4.1,2.7-3.2,4.7-5.8
			C72.4,27.3,72.2,9.4,61,3.2c-5.5-3-9.7-1-15.8-2.5C32.9,5.5,27.6,9.8,31.4,24.8c-0.8,2.3-0.4,6.9,1.1,9.4c1,0.5,1.9,1,2.9,1.4
			c0.6,2.6,1.2,5.3,1.8,7.9c-4.5,2.2-6.2,6.9-10.1,9c-2.8,0.6-5.5,1.2-8.3,1.8C10.4,58,2.6,65.2,0.1,74.5c-0.9,3.2,3,17.6,4,20.9
			c0.1,3.2,0.2,6.5,0.4,9.7c0.9,5.1,3.4,11.3,4.3,15.1C7,126.5,5.2,132.7,3.4,139c21.6,2.5,43.2,5,64.8,7.6
			c0.7-6.2,1.2-12.8-1.4-17.3c-1.3-1.9-8-2-10.8-2.2c-0.6-1.6-1.2-3.1-1.8-4.7c2.8-1.4,5.5-2.9,8.3-4.3c7.2-2.9,16.4-2.5,22.3-6.8
			c2.5-1.8,4.6-8.3,5.4-11.5C89.8,94.2,89.4,88.7,89,83.2z M47.3,173.2c-8.4,3.6-16.8,7.2-25.2,10.8c2.1,4.9,6.1,6.4,6.8,13
			c-0.2,0.1-0.5,0.2-0.7,0.4l-1.8-1.8c0.4,9-1.5,14.5-1.4,23.8c9,0.1,18,0.2,27,0.4c3.9-11.5-2.7-31.8-3.6-46.4H47.3z"/>
	</g>
</g>
</svg>
