<?xml version="1.0" encoding="utf-8"?>
<!-- Generator: Adobe Illustrator 22.0.1, SVG Export Plug-In . SVG Version: 6.00 Build 0)  -->
<svg version="1.1" id="圖層_1" xmlns="http://www.w3.org/2000/svg" xmlns:xlink="http://www.w3.org/1999/xlink" x="0px" y="0px"
	 viewBox="0 0 117.5 182.8" style="enable-background:new 0 0 117.5 182.8;" xml:space="preserve">
<style type="text/css">
	.st0{fill-rule:evenodd;clip-rule:evenodd;fill:#6FFF5C;}
</style>
<g>
	<g>
		<path class="st0" d="M73.6,102.9c-0.4-1.1-0.7-2.2-1.1-3.2c1-0.7,1.9-1.4,2.9-2.2v-0.4c-1.3-0.4-2.6-0.7-4-1.1
			c-6.9-6.7-2.1-32.2-5-43.9c-2.3-9-9.9-14.3-19.1-16.6C49.7,20.2,47.7,12,38,5c-2.9-2.1-6-6-11.2-4.7C18,2.6,9,14,7,23.3
			c-0.6,2.6,0.7,2.8-0.4,5c0.1,0.4,0.2,0.7,0.4,1.1h0.4c0.2-0.6,0.5-1.2,0.7-1.8c0.4-0.2,0.7-0.5,1.1-0.7c0.5,4.5,2.5,6.4,3.6,9.7
			c0.4,0.2,0.7,0.5,1.1,0.7c-0.7-2.3-0.7-3.7,0.7-5c0.1-0.2,0.2-0.5,0.4-0.7c0.4,2.3,7.7,5-2.5,7.9c-0.1,0.2-0.2,0.5-0.4,0.7h1.1
			c5.9-2.1,5.7-5.6,9-6.8c-0.2-0.7-0.5-1.4-0.7-2.2c1.1,0.4,2.2,0.7,3.2,1.1c-0.4,8-22.4,9.5-23,26.6c-0.1,7.7,2.2,16.5,3.6,23.4
			c11.5,12.8-0.8,23.9-4.7,33.5c-2.3,5.6,3.2,14.8,4.3,20.2c12.2-6.5,24.5-13,36.7-19.4c11.8,0.7,23.5,1.4,35.3,2.2
			c-0.1-5-0.2-10.1-0.4-15.1C75.7,102.8,75.3,102.9,73.6,102.9z M46.6,34.8l-0.4,0.4c-0.2-0.1-0.5-0.2-0.7-0.4
			c0.2-1.3,0.5-2.6,0.7-4C47.3,31.9,46.9,33.2,46.6,34.8z M99.9,113.7c-4.8-0.1-9.6-0.2-14.4-0.4v5.8c4.8,0.5,9.6,1,14.4,1.4V113.7z
			 M97.7,146.4c-5.9,4.2-11.8,8.4-17.6,12.6c0.6,7.6,1.2,16.1,1.1,23.8h14.4c0.7-5.2,1.4-10.3,2.2-15.5c-1.3-0.5-2.6-1-4-1.4
			c-0.3-3.5-0.2-4.4,1.4-5.8v-0.4c-0.6,0.2-1.2,0.5-1.8,0.7h-0.4C94.9,157.3,100.7,153.3,97.7,146.4z M28.3,169.8
			c0.4-1.9,0.7-3.8,1.1-5.8c-3.1-0.1-6.2-0.2-9.4-0.4c0.3,3.4,1.7,6.9,0.7,10.4c3.6,0.4,7.2,0.7,10.8,1.1
			C30.7,172.8,31,170.6,28.3,169.8z M100.6,177c0.8,0.2,1.7,0.5,2.5,0.7v-6.5c-0.6-0.2-1.2-0.5-1.8-0.7
			C101.1,172.7,100.9,174.9,100.6,177z M107.5,173.1v5c3.2,1.1,6.9,0.5,9.7-0.4l0.4-0.7C115.6,173.7,112,173.7,107.5,173.1z
			 M99.9,182.1v0.4c1,0.1,1.9,0.2,2.9,0.4c0.1-0.2,0.2-0.5,0.4-0.7V181c-1-0.4-1.9-0.7-2.9-1.1C100.1,180.6,100,181.4,99.9,182.1z"
			/>
	</g>
</g>
</svg>
