<?xml version="1.0" encoding="utf-8"?>
<!-- Generator: Adobe Illustrator 22.0.1, SVG Export Plug-In . SVG Version: 6.00 Build 0)  -->
<svg version="1.1" id="圖層_1" xmlns="http://www.w3.org/2000/svg" xmlns:xlink="http://www.w3.org/1999/xlink" x="0px" y="0px"
	 viewBox="0 0 106.8 146.8" style="enable-background:new 0 0 106.8 146.8;" xml:space="preserve">
<style type="text/css">
	.st0{fill-rule:evenodd;clip-rule:evenodd;fill:#00451D;}
</style>
<g>
	<g>
		<path class="st0" d="M104.4,106.9c-0.1-4.4-0.2-8.9-0.4-13.3c-2-6.2-4.1-12.5-6.1-18.7c-2.1-8.1-2.2-17.6-6.5-23.8
			C85.7,42.8,74.1,40,65.2,34.9c-0.6-3.8,1.4-3.9,2.9-6.5h0.4c0.1,0.8,0.2,1.7,0.4,2.5c1.5-1.9,0.4-4.4,1.1-6.8
			C73,12.4,71.3-0.3,55.8,0c-2.7,1.9-6,4.5-8.6,5.8c-2.6-0.4-5.3-0.7-7.9-1.1c-1.2,1.1-2.2,2-3.2,3.2c0.3,4.4,3.5,4.2,7.2,5
			c-1.9,3-3.4,19.4-1.4,23.4c0.8,1.6,4.2,1.8,6.5,1.8c0.2,0.2,0.5,0.5,0.7,0.7c-4.8,2-9.6,4.1-14.4,6.1c-5.2,6.8-7.1,30-8.6,38.5
			c-1.3,6.8-1.6,14.5,3.6,16.9c6,1.6,15.2-6.9,20.5-4.3h0.7c-0.7,2.9-1.9,5.2-2.2,9c-4.6-0.2-9.1-0.5-13.7-0.7
			C22.5,100.7,8.1,88,0,105.8c0.6,8.5,8.5,15.1,15.1,17.6c0.1,0.4,0.2,0.7,0.4,1.1c-1.9,2.4-6.1,8.4-3.6,12.6
			c2.2,4.4,17.3,6.3,25.6,4c2.7-0.8,5.6-4.7,10.8-3.2c3.1,0.9,6.7,5.8,9,7.9c6-1,11.6,2,17.6,0.4c1-1.8,1.9-3.6,2.9-5.4
			c7.7-2,16.1-0.1,21.2-4.3c3.5-2.9,2.3-9.2,4.7-13.3l2.9-2.9C107.6,116.6,105.3,110.7,104.4,106.9z M42.1,85H40
			c0.2-1.1,0.5-2.2,0.7-3.2c0.8,0.6,1,1.2,1.4,2.2V85z"/>
	</g>
</g>
</svg>
