<?xml version="1.0" encoding="utf-8"?>
<!-- Generator: Adobe Illustrator 22.0.1, SVG Export Plug-In . SVG Version: 6.00 Build 0)  -->
<svg version="1.1" id="圖層_1" xmlns="http://www.w3.org/2000/svg" xmlns:xlink="http://www.w3.org/1999/xlink" x="0px" y="0px"
	 viewBox="0 0 56.5 95.5" style="enable-background:new 0 0 56.5 95.5;" xml:space="preserve">
<style type="text/css">
	.st0{fill-rule:evenodd;clip-rule:evenodd;fill:#00E7BD;}
</style>
<g>
	<g>
		<path class="st0" d="M52.6,42.8c-4.2-3-6.9-2.3-11.9-3.2c-0.9-3.9-3-11.2,0.7-14.8c0.7-0.2,1.4-0.5,2.2-0.7
			c1.4-2.1,0.7-6.7,1.1-7.9c1.5-5.3-3.2-7.5-2.9-10.8c-7-5.5-8.8-5.2-11.5-5.4c-2,0.4-1.4,0.5-3.2,0c-2.1,3-6,3.5-7.6,7.2
			c-2.6,0.5-2.4,1.4-1.8,2.5c-0.6,1.2-1.2,2.4-1.8,3.6C12.3,16,23.2,29.2,23.8,32c-0.4,1.1-0.7,2.2-1.1,3.2c-2.5,1.7-2.9,1-6.1,0.4
			c-3.8,2.9-7.8,8.1-13,9.4c-1.1,4.6-2,9-3.6,13.7c0.3,3.9,2.8,4.5,4,7.2c1.3,3.1-2.1,6-0.7,9.4c1.9,4.6,3.3,3.8,1.1,10.8
			C7.7,90,7,93.9,13,95.4c10.9-7.9,21.1-11.4,32.4-18c5.3-9-1.1-21.1,11.2-27C55.9,48.9,53.2,44.3,52.6,42.8z"/>
	</g>
</g>
</svg>
