<svg xmlns="http://www.w3.org/2000/svg" viewBox="0 0 128 40"><defs><style>.cls-1{fill:#fff;}</style></defs><title>AppStore</title><g id="圖層_2" data-name="圖層 2"><g id="Badges"><rect width="128" height="40" rx="4" ry="4"/><path class="cls-1" d="M27,19.75A5.62,5.62,0,0,1,29.66,15a5.75,5.75,0,0,0-4.53-2.45c-1.91-.2-3.76,1.14-4.73,1.14s-2.49-1.12-4.1-1.09a6,6,0,0,0-5.08,3.1c-2.2,3.8-.56,9.39,1.55,12.47,1.05,1.51,2.28,3.19,3.89,3.13s2.16-1,4.07-1,2.44,1,4.08,1,2.76-1.51,3.77-3a12.45,12.45,0,0,0,1.73-3.51A5.43,5.43,0,0,1,27,19.75Z"/><path class="cls-1" d="M23.88,10.56a5.54,5.54,0,0,0,1.27-4A5.63,5.63,0,0,0,21.5,8.48a5.27,5.27,0,0,0-1.3,3.82A4.66,4.66,0,0,0,23.88,10.56Z"/><path class="cls-1" d="M49.79,31.12h-2.2l-1.21-3.79H42.18L41,31.12H38.89L43,18.21h2.57ZM46,25.74l-1.09-3.37q-.17-.52-.65-2.43h0q-.19.82-.61,2.43l-1.07,3.37Z"/><path class="cls-1" d="M60.47,26.35a5.29,5.29,0,0,1-1.28,3.75,3.75,3.75,0,0,1-2.85,1.23A2.85,2.85,0,0,1,53.69,30h0v4.9H51.58v-10q0-1.49-.08-3.06h1.82l.12,1.47h0a3.68,3.68,0,0,1,5.89-.36A5.13,5.13,0,0,1,60.47,26.35Zm-2.11.08a3.83,3.83,0,0,0-.61-2.24,2.12,2.12,0,0,0-1.8-.92,2.15,2.15,0,0,0-1.39.51,2.35,2.35,0,0,0-.81,1.33,2.71,2.71,0,0,0-.1.63v1.55A2.49,2.49,0,0,0,54.27,29a2.06,2.06,0,0,0,1.62.7,2.12,2.12,0,0,0,1.82-.9A4,4,0,0,0,58.36,26.43Z"/><path class="cls-1" d="M71.17,26.35a5.29,5.29,0,0,1-1.28,3.75A3.75,3.75,0,0,1,67,31.33,2.85,2.85,0,0,1,64.39,30h0v4.9H62.29v-10q0-1.49-.08-3.06H64l.12,1.47h0a3.68,3.68,0,0,1,5.89-.36A5.14,5.14,0,0,1,71.17,26.35Zm-2.11.08a3.83,3.83,0,0,0-.61-2.24,2.11,2.11,0,0,0-1.8-.92,2.15,2.15,0,0,0-1.39.51,2.36,2.36,0,0,0-.81,1.33,2.74,2.74,0,0,0-.1.63v1.55A2.49,2.49,0,0,0,65,29a2.07,2.07,0,0,0,1.62.7,2.12,2.12,0,0,0,1.82-.9A4,4,0,0,0,69.06,26.43Z"/><path class="cls-1" d="M83.14,27.5A3.44,3.44,0,0,1,82,30.18a5.08,5.08,0,0,1-3.52,1.13,6.16,6.16,0,0,1-3.34-.8l.48-1.72a5.66,5.66,0,0,0,3,.82,2.82,2.82,0,0,0,1.82-.53,1.72,1.72,0,0,0,.65-1.41,1.8,1.8,0,0,0-.54-1.32,5,5,0,0,0-1.78-1q-3.39-1.26-3.39-3.7A3.28,3.28,0,0,1,76.55,19a4.69,4.69,0,0,1,3.16-1,6.26,6.26,0,0,1,2.93.61l-.52,1.69a5.08,5.08,0,0,0-2.47-.59,2.5,2.5,0,0,0-1.7.54,1.53,1.53,0,0,0-.52,1.17A1.58,1.58,0,0,0,78,22.69a6.7,6.7,0,0,0,1.88,1,6.37,6.37,0,0,1,2.45,1.57A3.29,3.29,0,0,1,83.14,27.5Z"/><path class="cls-1" d="M90,23.36H87.69v4.52q0,1.72,1.21,1.72a3.71,3.71,0,0,0,.92-.1l.06,1.57a4.68,4.68,0,0,1-1.61.23,2.48,2.48,0,0,1-1.91-.75,3.67,3.67,0,0,1-.69-2.51V23.36H84.31V21.81h1.36v-1.7l2-.61v2.32H90Z"/><path class="cls-1" d="M100.25,26.39A5.11,5.11,0,0,1,99,29.91a4.38,4.38,0,0,1-3.41,1.42A4.16,4.16,0,0,1,92.36,30a5,5,0,0,1-1.22-3.43A5.05,5.05,0,0,1,92.39,23a4.34,4.34,0,0,1,3.38-1.38A4.25,4.25,0,0,1,99.07,23,4.9,4.9,0,0,1,100.25,26.39Zm-2.15.07a4.19,4.19,0,0,0-.55-2.21,2,2,0,0,0-1.86-1.11,2.07,2.07,0,0,0-1.9,1.11,4.27,4.27,0,0,0-.55,2.25,4.19,4.19,0,0,0,.55,2.21,2.11,2.11,0,0,0,3.73,0A4.19,4.19,0,0,0,98.11,26.46Z"/><path class="cls-1" d="M107,23.63a3.58,3.58,0,0,0-.65-.06,2,2,0,0,0-1.69.82,3.1,3.1,0,0,0-.52,1.84v4.88h-2.07l0-6.37q0-1.61-.08-2.93h1.8l.08,1.78h.06a3.18,3.18,0,0,1,1-1.47,2.5,2.5,0,0,1,1.49-.5,3.28,3.28,0,0,1,.52,0Z"/><path class="cls-1" d="M116.22,26a4.86,4.86,0,0,1-.08.94h-6.2a2.7,2.7,0,0,0,.9,2.11,3.07,3.07,0,0,0,2,.65,6.87,6.87,0,0,0,2.51-.44l.32,1.44a7.77,7.77,0,0,1-3.12.57,4.51,4.51,0,0,1-3.4-1.27,4.7,4.7,0,0,1-1.23-3.42,5.33,5.33,0,0,1,1.15-3.5,4,4,0,0,1,3.25-1.49,3.47,3.47,0,0,1,3,1.49A5,5,0,0,1,116.22,26Zm-2-.54a2.81,2.81,0,0,0-.4-1.59A1.81,1.81,0,0,0,112.2,23a2,2,0,0,0-1.65.84,3.08,3.08,0,0,0-.61,1.61Z"/><path class="cls-1" d="M45.33,10.27a3.18,3.18,0,0,1-1,2.58,4.08,4.08,0,0,1-2.7.8,12.59,12.59,0,0,1-1.49-.08V7.34a10.93,10.93,0,0,1,1.75-.13,3.77,3.77,0,0,1,2.51.72A2.92,2.92,0,0,1,45.33,10.27Zm-1.07,0a2.32,2.32,0,0,0-.59-1.7A2.32,2.32,0,0,0,42,8a4.33,4.33,0,0,0-.82.07v4.74a5.43,5.43,0,0,0,.69,0,2.41,2.41,0,0,0,1.8-.65A2.6,2.6,0,0,0,44.26,10.3Z"/><path class="cls-1" d="M51,11.27a2.51,2.51,0,0,1-.6,1.73,2.15,2.15,0,0,1-1.67.7,2,2,0,0,1-1.6-.67,2.43,2.43,0,0,1-.6-1.68,2.48,2.48,0,0,1,.62-1.74,2.13,2.13,0,0,1,1.66-.68,2.09,2.09,0,0,1,1.62.67A2.41,2.41,0,0,1,51,11.27ZM50,11.3a2.06,2.06,0,0,0-.27-1.08,1,1,0,0,0-.91-.55,1,1,0,0,0-.93.55,2.1,2.1,0,0,0-.27,1.1,2.07,2.07,0,0,0,.27,1.09,1,1,0,0,0,1.83,0A2.06,2.06,0,0,0,50,11.3Z"/><path class="cls-1" d="M58.63,9,57.2,13.59h-.93l-.59-2a14.72,14.72,0,0,1-.37-1.48h0a10.77,10.77,0,0,1-.37,1.48l-.63,2h-.94L52,9h1l.52,2.17q.19.77.31,1.47h0q.11-.57.38-1.46L54.92,9h.83l.62,2.14q.23.78.37,1.5h0a14.32,14.32,0,0,1,.31-1.5L57.63,9Z"/><path class="cls-1" d="M63.9,13.59h-1V11q0-1.21-.92-1.21a.92.92,0,0,0-.73.33,1.18,1.18,0,0,0-.28.78v2.71h-1V10.33q0-.6,0-1.31h.89l0,.71h0a1.47,1.47,0,0,1,.53-.55,1.71,1.71,0,0,1,.92-.26,1.46,1.46,0,0,1,1.06.41,2,2,0,0,1,.53,1.51Z"/><path class="cls-1" d="M66.7,13.59h-1V6.93h1Z"/><path class="cls-1" d="M72.68,11.27a2.51,2.51,0,0,1-.6,1.73,2.15,2.15,0,0,1-1.67.7A2,2,0,0,1,68.8,13a2.43,2.43,0,0,1-.6-1.68,2.49,2.49,0,0,1,.62-1.74,2.13,2.13,0,0,1,1.66-.68,2.09,2.09,0,0,1,1.62.67A2.41,2.41,0,0,1,72.68,11.27Zm-1.06,0a2.06,2.06,0,0,0-.27-1.08,1,1,0,0,0-.91-.55,1,1,0,0,0-.93.55,2.1,2.1,0,0,0-.27,1.1,2.07,2.07,0,0,0,.27,1.09,1,1,0,0,0,.92.55,1,1,0,0,0,.91-.56A2,2,0,0,0,71.63,11.3Z"/><path class="cls-1" d="M77.6,13.59h-.91l-.08-.53h0a1.57,1.57,0,0,1-1.34.63,1.38,1.38,0,0,1-1-.41,1.3,1.3,0,0,1-.36-.93,1.42,1.42,0,0,1,.7-1.28,3.65,3.65,0,0,1,2-.43v-.08q0-.9-.95-.9a2.12,2.12,0,0,0-1.19.34l-.21-.67a2.92,2.92,0,0,1,1.57-.39q1.79,0,1.79,1.89V12.5A7.14,7.14,0,0,0,77.6,13.59ZM76.55,12v-.71q-1.68,0-1.68.92a.69.69,0,0,0,.2.54.71.71,0,0,0,.5.18,1,1,0,0,0,.62-.21.86.86,0,0,0,.35-.54A.82.82,0,0,0,76.55,12Z"/><path class="cls-1" d="M83.38,13.59h-.9l0-.73h0a1.52,1.52,0,0,1-1.47.84A1.72,1.72,0,0,1,79.56,13,2.53,2.53,0,0,1,79,11.37a2.65,2.65,0,0,1,.59-1.8A1.82,1.82,0,0,1,81,8.93a1.37,1.37,0,0,1,1.29.62h0V6.93h1v5.44Q83.34,13,83.38,13.59Zm-1.05-1.93V10.9a1.45,1.45,0,0,0,0-.32,1.15,1.15,0,0,0-.37-.62,1,1,0,0,0-.68-.25,1,1,0,0,0-.89.45A1.94,1.94,0,0,0,80,11.33a1.81,1.81,0,0,0,.31,1.1,1,1,0,0,0,.89.45,1,1,0,0,0,.8-.38A1.26,1.26,0,0,0,82.32,11.67Z"/><path class="cls-1" d="M92.07,11.27a2.51,2.51,0,0,1-.6,1.73,2.15,2.15,0,0,1-1.67.7,2,2,0,0,1-1.6-.67,2.43,2.43,0,0,1-.6-1.68,2.49,2.49,0,0,1,.62-1.74,2.13,2.13,0,0,1,1.66-.68,2.09,2.09,0,0,1,1.62.67A2.41,2.41,0,0,1,92.07,11.27ZM91,11.3a2.06,2.06,0,0,0-.27-1.08,1,1,0,0,0-.91-.55,1,1,0,0,0-.93.55,2.1,2.1,0,0,0-.27,1.1,2.07,2.07,0,0,0,.27,1.09,1,1,0,0,0,1.84,0A2.06,2.06,0,0,0,91,11.3Z"/><path class="cls-1" d="M97.53,13.59h-1V11q0-1.21-.92-1.21a.91.91,0,0,0-.73.33,1.18,1.18,0,0,0-.28.78v2.71h-1V10.33q0-.6,0-1.31h.89l0,.71h0A1.48,1.48,0,0,1,95,9.19a1.72,1.72,0,0,1,.92-.26A1.46,1.46,0,0,1,97,9.34a2,2,0,0,1,.53,1.51Z"/><path class="cls-1" d="M104.37,9.78h-1.12V12c0,.56.2.85.59.85a1.81,1.81,0,0,0,.45,0l0,.77a2.29,2.29,0,0,1-.79.11,1.21,1.21,0,0,1-.94-.37,1.79,1.79,0,0,1-.34-1.23V9.78h-.67V9h.67V8.19l1-.3V9h1.12Z"/><path class="cls-1" d="M109.75,13.59h-1V11q0-1.23-.92-1.23a1,1,0,0,0-1,.71,1.27,1.27,0,0,0,0,.37v2.75h-1V6.93h1V9.68h0a1.54,1.54,0,0,1,1.37-.75,1.42,1.42,0,0,1,1,.41,2.08,2.08,0,0,1,.52,1.53Z"/><path class="cls-1" d="M115.3,11.09a2.43,2.43,0,0,1,0,.46h-3a1.33,1.33,0,0,0,.44,1,1.51,1.51,0,0,0,1,.32,3.38,3.38,0,0,0,1.23-.22l.16.71a3.83,3.83,0,0,1-1.53.28,2.21,2.21,0,0,1-1.67-.63,2.31,2.31,0,0,1-.61-1.68,2.62,2.62,0,0,1,.56-1.72,1.94,1.94,0,0,1,1.6-.73,1.7,1.7,0,0,1,1.49.73A2.46,2.46,0,0,1,115.3,11.09Zm-1-.26a1.37,1.37,0,0,0-.2-.78.89.89,0,0,0-.81-.42,1,1,0,0,0-.81.41,1.53,1.53,0,0,0-.3.79Z"/></g></g></svg>