<?xml version="1.0" encoding="utf-8"?>
<!-- Generator: Adobe Illustrator 22.0.1, SVG Export Plug-In . SVG Version: 6.00 Build 0)  -->
<svg version="1.1" id="圖層_1" xmlns="http://www.w3.org/2000/svg" xmlns:xlink="http://www.w3.org/1999/xlink" x="0px" y="0px"
	 viewBox="0 0 132.1 291.2" style="enable-background:new 0 0 132.1 291.2;" xml:space="preserve">
<style type="text/css">
	.st0{fill-rule:evenodd;clip-rule:evenodd;fill:#B1B900;}
</style>
<g>
	<g>
		<path class="st0" d="M119.7,186.8c-2.7-4.4-3.7-14.5-3.2-21.2c0.6-8.8,6-8.8,8.3-15.5c2.3-6.8,0.4-13.1,1.8-20.9
			c1.6-9.1,3.8-20.9,2.5-29.9c-0.9-6.2,3.1-13.8,0-19.4c-5-7.1-17.1-8.3-23.8-14C88.8,51.7,92.7,44.4,92.7,44.2
			c4.5-1.3,9.6-21.9,7.9-28.4C98.7,8.7,78.2-2.9,68.2,0.7C39,11,59,38.5,64.2,58.6c-7,3.9-21.2,10.7-31,11.2
			c-1.7,3.1-0.7,6.6-1.4,10.4c-0.8,3.9-3.4,10.3-4.3,14c-0.1,4.2-0.2,8.4-0.4,12.6c-1.7,8-4.7,17.5-6.1,24.8
			c-1.9,9.5,5.6,18.3,4.7,24.8c-1.4,10.2-13.6,15.7-15.8,25.2c0.7,0.7,1.4,1.4,2.2,2.2c-0.5,1.4-1,2.9-1.4,4.3
			c2.4,1.1,4.8,2.2,7.2,3.2c-1.2,13.6-8.1,27.4-11.9,39.6c-0.1,3.5-0.2,7-0.4,10.4c-3,14.5-5.3,32.4-5,49.7h50.4
			c2-1.9,4.1-3.8,6.1-5.8c8.5-7,15.9-15.8,24.5-22.3c3-2.3,4.8-5.3,7.6-7.6c6.1-5.1,13.8-5.8,15.5-15.5h4.7
			c1.9-3.1,2.3-29.2,0.7-34.2v-4c7.5,2,12.3,8.7,20.9,10.1h0.4C135.3,196.9,123.9,193.8,119.7,186.8z M68.2,236.5
			c-3.5,5.6-10.7,10.6-15.8,14.8c-5.4,4.3-9.3,10-15.1,14c-0.9-1.3-3.3-15.1-3.6-16.9c1.8-3.2,8.9-12.4,5-15.8
			c2.8-10.9,13.1-17,18-25.9c5.4,1.1,5.1,2.3,11.9,2.5c1.7,4.4,3.7,7,6.1,10.4C71.7,224.8,71.3,231.5,68.2,236.5z"/>
	</g>
</g>
</svg>
