<svg xmlns="http://www.w3.org/2000/svg" xmlns:xlink="http://www.w3.org/1999/xlink" viewBox="0 0 511.73 512"><defs><style>.cls-1{fill:none;}.cls-2{clip-path:url(#clip-path);}.cls-3{fill:#ffa32b;}</style><clipPath id="clip-path"><rect class="cls-1" width="511.73" height="512"/></clipPath></defs><title>volumn</title><g id="圖層_2" data-name="圖層 2"><g id="圖層_1-2" data-name="圖層 1"><g class="cls-2"><path class="cls-3" d="M319.83,503.5V436.16C394.2,409.73,447.77,339.46,447.77,256S394.2,102.27,319.83,75.84V8.5C430.12,37,511.73,136.81,511.73,256s-81.61,219-191.9,247.5m-64,8.37L127.93,383.94H32A32,32,0,0,1,0,352V160a32,32,0,0,1,32-32h95.95L255.87.13s32-4,32,32V479.88c0,36-32,32-32,32m-32-383.8-64,64H64V320h96l64,64ZM415.78,256c0,59.53-40.85,109.13-95.95,123.4V311.09a63.45,63.45,0,0,0,0-110.19V132.59c55.1,14.27,95.95,63.88,95.95,123.41"/></g></g></g></svg>